<svg width="100" height="80" viewBox="0 0 100 80" fill="rgb(113,204,209)" xmlns="http://www.w3.org/2000/svg">
<path d="M8.48377 11.46C15.4966 3.855 26.1082 0 40.0189 0H45.0173V14.095L40.9985 14.9C34.1507 16.27 29.3872 18.965 26.838 22.92C25.5079 25.0506 24.7535 27.4902 24.6487 30H40.0189C41.3445 30 42.6159 30.5268 43.5533 31.4645C44.4907 32.4021 45.0173 33.6739 45.0173 35V70C45.0173 75.515 40.5337 80 35.0204 80H5.02986C3.70419 80 2.43282 79.4732 1.49543 78.5355C0.558048 77.5979 0.0314293 76.3261 0.0314293 75V50L0.0464247 35.405C0.00143881 34.85 -0.948263 21.7 8.48377 11.46ZM90.0031 80H60.0126C58.6869 80 57.4155 79.4732 56.4781 78.5355C55.5408 77.5979 55.0141 76.3261 55.0141 75V50L55.0291 35.405C54.9841 34.85 54.0344 21.7 63.4665 11.46C70.4793 3.855 81.0909 0 95.0016 0H100V14.095L95.9813 14.9C89.1334 16.27 84.3699 18.965 81.8207 22.92C80.4906 25.0506 79.7362 27.4902 79.6314 30H95.0016C96.3272 30 97.5986 30.5268 98.536 31.4645C99.4734 32.4021 100 33.6739 100 35V70C100 75.515 95.5164 80 90.0031 80Z" fill="rgb(113,204,209)"/>
</svg>
