<svg width="98" height="78" viewBox="0 0 98 78" fill="rgb(113,204,209)" xmlns="http://www.w3.org/2000/svg">
<path d="M89.6814 66.8265C98.9208 56.8425 97.9905 44.0213 97.9611 43.875V4.875C97.9611 3.58207 97.4453 2.3421 96.527 1.42786C95.6088 0.513616 94.3634 0 93.0648 0H63.6867C58.2861 0 53.894 4.37287 53.894 9.75V43.875C53.894 45.1679 54.4099 46.4079 55.3281 47.3221C56.2464 48.2364 57.4918 48.75 58.7904 48.75H73.8613C73.7579 51.1601 73.0346 53.5035 71.7608 55.5555C69.2734 59.4604 64.5876 62.127 57.8258 63.4725L53.894 64.2525V78H58.7904C72.4169 78 82.8118 74.2414 89.6814 66.8265ZM35.7874 66.8265C45.0317 56.8425 44.0965 44.0213 44.0671 43.875V4.875C44.0671 3.58207 43.5512 2.3421 42.633 1.42786C41.7147 0.513616 40.4693 0 39.1707 0H9.79268C4.39202 0 0 4.37287 0 9.75V43.875C0 45.1679 0.515863 46.4079 1.43411 47.3221C2.35235 48.2364 3.59775 48.75 4.89634 48.75H19.9673C19.8638 51.1601 19.1406 53.5035 17.8668 55.5555C15.3794 59.4604 10.6936 62.127 3.93176 63.4725L0 64.2525V78H4.89634C18.5229 78 28.9178 74.2414 35.7874 66.8265Z" fill="rgb(113,204,209)"/>
</svg>
